<?xml version="1.0" encoding="UTF-8" standalone="no"?><!DOCTYPE svg PUBLIC "-//W3C//DTD SVG 1.1//EN" "http://www.w3.org/Graphics/SVG/1.1/DTD/svg11.dtd"><svg width="100%" height="100%" viewBox="0 0 2084 2084" version="1.1" xmlns="http://www.w3.org/2000/svg" xmlns:xlink="http://www.w3.org/1999/xlink" xml:space="preserve" xmlns:serif="http://www.serif.com/" style="fill-rule:evenodd;clip-rule:evenodd;stroke-linejoin:round;stroke-miterlimit:2;"><rect id="Artboard1" x="0" y="0" width="2083.33" height="2083.33" style="fill:none;"/><clipPath id="_clip1"><rect id="Artboard11" serif:id="Artboard1" x="0" y="0" width="2083.33" height="2083.33"/></clipPath><g clip-path="url(#_clip1)"><path d="M714.055,2030.68c-414.584,-137.403 -714.055,-528.514 -714.055,-989.018c-0,-574.912 466.755,-1041.67 1041.67,-1041.67c574.911,-0 1041.67,466.755 1041.67,1041.67c0,441.359 -275.088,818.975 -662.967,970.58c-16.633,1.141 -33.503,1.267 -49.246,-0.504c-40.181,-4.636 -70.59,-38.517 -70.872,-78.964c-0.517,-73.996 -1.656,-236.812 -1.988,-282.428c-0.08,-11.521 -0.833,-23.028 -2.254,-34.461c-6.532,-52.146 -23.441,-99.769 -62.745,-137.629c136.634,-15.677 252.168,-57.218 338.551,-134.493c80.565,-81.942 131.096,-193.92 134.325,-353.162c0.228,-11.886 0.027,-23.775 -0.604,-35.646c-5.424,-105.65 -39.291,-196.356 -110.533,-267.424c32.751,-88.032 27.726,-181.15 -6.957,-278.261c-82.067,-8.583 -180.824,38.174 -287.536,111.305c-83.303,-21.955 -168.763,-33.121 -256.135,-34.626c-6.654,-0.12 -13.308,-0.143 -19.962,-0.068c-85.705,1.082 -164.296,11.788 -234.412,33.961c-107.62,-64.721 -187.894,-102.815 -233.812,-107.476c-0.825,-0.077 -1.652,-0.122 -2.481,-0.134c-6.745,-0.112 -44.032,-0.726 -51.967,-0.857c-0.904,-0.015 -1.732,0.505 -2.111,1.326c-44.235,95.752 -47.292,188.365 -13.181,273.821c-78.557,87.535 -112.962,185.067 -105.606,292.055c-1.537,310.067 162.946,469.307 471.423,497.729c-38.881,39.388 -59.941,85.796 -64.587,138.67c-98.821,38.586 -173.564,34.298 -229.851,-2.849c-0.015,-0.01 -0.03,-0.019 -0.045,-0.029c-27.452,-17.696 -56.183,-60.358 -88.616,-103.754c-13.526,-18.121 -29.618,-34.176 -47.771,-47.659c-32.383,-24.396 -66.056,-39.763 -101.967,-39.467c-14.57,0.067 -26.043,1.914 -33.178,6.24c-2.655,1.674 -4.517,4.355 -5.159,7.427c-0.642,3.072 -0.01,6.274 1.753,8.871c14.661,21.651 29.848,39.853 47.433,42.32c2.216,0.276 4.277,1.279 5.862,2.852c15.464,15.378 30.099,30.993 43.181,47.031c3.93,4.895 7.495,10.074 10.664,15.493c18.42,31.689 37.574,68.52 57.319,109.536c5.878,12.216 14.13,23.139 24.274,32.133l34.082,30.211c35.026,30.659 90.466,42.236 163.713,44.413c1.743,0.051 3.486,0.075 5.229,0.073c36.307,-0.054 73.227,-2.562 111.126,-8.982c-0,-0 -0,142.975 -0.002,215.305c-0,29.645 -23.125,54.143 -52.721,55.852c-6.035,0.352 -12.387,0.574 -18.947,0.687Z" style="fill:#333;"/></g></svg>