<?xml version="1.0" encoding="UTF-8" standalone="no"?><!DOCTYPE svg PUBLIC "-//W3C//DTD SVG 1.1//EN" "http://www.w3.org/Graphics/SVG/1.1/DTD/svg11.dtd"><svg width="100%" height="100%" viewBox="0 0 500 500" version="1.1" xmlns="http://www.w3.org/2000/svg" xmlns:xlink="http://www.w3.org/1999/xlink" xml:space="preserve" xmlns:serif="http://www.serif.com/" style="fill-rule:evenodd;clip-rule:evenodd;stroke-linejoin:round;stroke-miterlimit:2;"><rect id="Instagram" x="0" y="0" width="500" height="500" style="fill:none;"/><path d="M250,0c137.978,0 249.998,112.02 249.998,249.998c0,137.978 -112.02,249.999 -249.998,249.999c-137.978,-0 -249.998,-112.021 -249.998,-249.999c-0,-137.978 112.02,-249.998 249.998,-249.998Zm-0.003,71c-48.61,-0 -54.708,0.205 -73.798,1.076c-19.057,0.869 -32.066,3.896 -43.449,8.321c-11.772,4.574 -21.756,10.694 -31.71,20.645c-9.948,9.952 -16.07,19.934 -20.644,31.705c-4.422,11.386 -7.45,24.397 -8.319,43.45c-0.869,19.091 -1.077,25.188 -1.077,73.801c-0,48.614 0.208,54.71 1.077,73.802c0.869,19.052 3.897,32.063 8.319,43.45c4.574,11.771 10.696,21.753 20.644,31.704c9.954,9.952 19.938,16.071 31.71,20.646c11.383,4.425 24.392,7.451 43.449,8.32c19.09,0.872 25.188,1.077 73.798,1.077c48.616,0 54.714,-0.205 73.804,-1.077c19.051,-0.869 32.066,-3.895 43.449,-8.32c11.772,-4.575 21.756,-10.694 31.704,-20.646c9.951,-9.951 16.07,-19.933 20.644,-31.704c4.428,-11.387 7.456,-24.398 8.322,-43.45c0.872,-19.092 1.08,-25.188 1.08,-73.802c-0,-48.613 -0.208,-54.71 -1.08,-73.801c-0.866,-19.053 -3.894,-32.064 -8.322,-43.45c-4.574,-11.771 -10.693,-21.753 -20.644,-31.705c-9.948,-9.951 -19.932,-16.071 -31.704,-20.645c-11.383,-4.425 -24.398,-7.452 -43.449,-8.321c-19.09,-0.871 -25.188,-1.076 -73.804,-1.076Zm0,32.252c47.798,-0 53.457,0.182 72.336,1.042c17.449,0.797 26.928,3.713 33.234,6.163c8.358,3.248 14.323,7.127 20.584,13.391c6.265,6.264 10.144,12.226 13.389,20.581c2.453,6.308 5.365,15.786 6.16,33.238c0.866,18.875 1.044,24.535 1.044,72.331c0,47.795 -0.178,53.457 -1.044,72.331c-0.795,17.452 -3.707,26.931 -6.16,33.237c-3.245,8.356 -7.124,14.319 -13.389,20.582c-6.261,6.264 -12.226,10.144 -20.584,13.39c-6.306,2.452 -15.785,5.367 -33.234,6.164c-18.873,0.861 -24.535,1.043 -72.336,1.043c-47.795,-0 -53.457,-0.182 -72.33,-1.043c-17.449,-0.797 -26.928,-3.712 -33.234,-6.164c-8.358,-3.246 -14.32,-7.126 -20.584,-13.39c-6.265,-6.263 -10.144,-12.226 -13.389,-20.582c-2.45,-6.306 -5.368,-15.785 -6.166,-33.237c-0.86,-18.874 -1.038,-24.536 -1.038,-72.331c-0,-47.796 0.178,-53.456 1.038,-72.331c0.798,-17.452 3.716,-26.93 6.166,-33.238c3.245,-8.355 7.124,-14.317 13.389,-20.581c6.264,-6.264 12.226,-10.143 20.584,-13.391c6.306,-2.45 15.785,-5.366 33.234,-6.163c18.873,-0.86 24.538,-1.042 72.33,-1.042Zm0,54.828c-50.764,-0 -91.914,41.153 -91.914,91.918c-0,50.765 41.15,91.919 91.914,91.919c50.767,-0 91.92,-41.154 91.92,-91.919c0,-50.765 -41.153,-91.918 -91.92,-91.918Zm0,151.585c-32.95,-0 -59.665,-26.714 -59.665,-59.667c0,-32.953 26.715,-59.667 59.665,-59.667c32.956,-0 59.671,26.714 59.671,59.667c-0,32.953 -26.715,59.667 -59.671,59.667Zm117.034,-155.217c-0,11.863 -9.619,21.481 -21.483,21.481c-11.864,-0 -21.477,-9.618 -21.477,-21.481c-0,-11.864 9.613,-21.48 21.477,-21.48c11.864,-0 21.483,9.616 21.483,21.48Z" style="fill:#fff;"/></svg>