<?xml version="1.0" encoding="UTF-8" standalone="no"?><!DOCTYPE svg PUBLIC "-//W3C//DTD SVG 1.1//EN" "http://www.w3.org/Graphics/SVG/1.1/DTD/svg11.dtd"><svg width="100%" height="100%" viewBox="0 0 500 500" version="1.1" xmlns="http://www.w3.org/2000/svg" xmlns:xlink="http://www.w3.org/1999/xlink" xml:space="preserve" xmlns:serif="http://www.serif.com/" style="fill-rule:evenodd;clip-rule:evenodd;stroke-linejoin:round;stroke-miterlimit:2;"><rect id="heyo" x="0" y="0" width="500" height="500" style="fill:none;"/><path d="M250,0c137.978,0 249.998,112.02 249.998,249.998c0,137.978 -112.02,249.999 -249.998,249.999c-137.978,-0 -249.998,-112.021 -249.998,-249.999c-0,-137.978 112.02,-249.998 249.998,-249.998Zm110.551,243.544c2.443,1.222 3.987,3.719 3.987,6.451c-0,2.731 -1.544,5.229 -3.987,6.45c-38.431,19.216 -151.652,75.826 -186.662,93.331c-2.236,1.118 -4.891,0.999 -7.017,-0.315c-2.126,-1.314 -3.42,-3.636 -3.42,-6.135l-0,-186.662c-0,-2.5 1.294,-4.821 3.42,-6.135c2.126,-1.314 4.781,-1.434 7.017,-0.316c35.01,17.506 148.231,74.116 186.662,93.331Z" style="fill:#fff;"/></svg>