<?xml version="1.0" encoding="UTF-8" standalone="no"?><!DOCTYPE svg PUBLIC "-//W3C//DTD SVG 1.1//EN" "http://www.w3.org/Graphics/SVG/1.1/DTD/svg11.dtd"><svg width="100%" height="100%" viewBox="0 0 500 500" version="1.1" xmlns="http://www.w3.org/2000/svg" xmlns:xlink="http://www.w3.org/1999/xlink" xml:space="preserve" xmlns:serif="http://www.serif.com/" style="fill-rule:evenodd;clip-rule:evenodd;stroke-linejoin:round;stroke-miterlimit:2;"><rect id="Github" x="0" y="0" width="500" height="500" style="fill:none;"/><path d="M250,0c137.978,0 249.998,112.02 249.998,249.998c0,137.978 -112.02,249.999 -249.998,249.999c-137.978,-0 -249.998,-112.021 -249.998,-249.999c-0,-137.978 112.02,-249.998 249.998,-249.998Zm-89.125,209.588l0,193.733l-68.354,-0l0,-193.733l68.354,0Zm46.829,0l68.354,0l-0,24.547c9.315,-11.329 18.756,-18.945 28.323,-22.847c9.567,-3.903 20.771,-5.854 33.611,-5.854c13.595,0 25.239,2.203 34.932,6.609c9.693,4.406 17.938,10.637 24.736,18.694c5.539,6.545 9.315,13.847 11.329,21.903c2.014,8.057 3.021,17.246 3.021,27.568l0,123.113l-68.354,-0l0,-97.81c0,-9.567 -0.692,-17.309 -2.077,-23.226c-1.384,-5.916 -3.839,-10.637 -7.364,-14.161c-3.021,-3.022 -6.42,-5.162 -10.196,-6.42c-3.777,-1.259 -7.805,-1.889 -12.085,-1.889c-11.581,0 -20.456,3.462 -26.624,10.386c-6.168,6.923 -9.252,16.805 -9.252,29.645l-0,103.475l-68.354,-0l-0,-193.733Zm-119.714,-74.396c-0,-5.287 1.007,-10.259 3.021,-14.917c2.014,-4.658 4.783,-8.749 8.308,-12.274c3.525,-3.524 7.616,-6.294 12.274,-8.308c4.657,-2.014 9.63,-3.021 14.917,-3.021c5.287,0 10.259,1.007 14.917,3.021c4.657,2.014 8.748,4.784 12.273,8.308c3.525,3.525 6.294,7.616 8.308,12.274c2.014,4.658 3.022,9.63 3.022,14.917c-0,5.287 -1.008,10.259 -3.022,14.917c-2.014,4.658 -4.783,8.749 -8.308,12.274c-3.525,3.524 -7.616,6.294 -12.273,8.308c-4.658,2.014 -9.63,3.021 -14.917,3.021c-5.287,-0 -10.26,-1.007 -14.917,-3.021c-4.658,-2.014 -8.749,-4.784 -12.274,-8.308c-3.525,-3.525 -6.294,-7.616 -8.308,-12.274c-2.014,-4.658 -3.021,-9.63 -3.021,-14.917Z" style="fill:#E2E8F0;"/></svg>